<?xml version="1.0" encoding="UTF-8" standalone="no"?>
<!-- Created with Inkscape (http://www.inkscape.org/) -->

<svg
   xmlns:dc="http://purl.org/dc/elements/1.1/"
   xmlns:cc="http://creativecommons.org/ns#"
   xmlns:rdf="http://www.w3.org/1999/02/22-rdf-syntax-ns#"
   xmlns:svg="http://www.w3.org/2000/svg"
   xmlns="http://www.w3.org/2000/svg"
   xmlns:sodipodi="http://sodipodi.sourceforge.net/DTD/sodipodi-0.dtd"
   xmlns:inkscape="http://www.inkscape.org/namespaces/inkscape"
   version="1.1"
   id="svg4854"
   xml:space="preserve"
   width="1066.6667"
   height="1066.6667"
   viewBox="0 0 1066.6667 1066.6667"
   sodipodi:docname="music-theme-publicdomainvectors.org.svg"
   inkscape:version="0.92.4 (5da689c313, 2019-01-14)"><metadata
     id="metadata4860"><rdf:RDF><cc:Work
         rdf:about=""><dc:format>image/svg+xml</dc:format><dc:type
           rdf:resource="http://purl.org/dc/dcmitype/StillImage" /><dc:title></dc:title></cc:Work></rdf:RDF></metadata><defs
     id="defs4858"><clipPath
       clipPathUnits="userSpaceOnUse"
       id="clipPath4870"><path
         d="M 0,800 H 800 V 0 H 0 Z"
         id="path4868"
         inkscape:connector-curvature="0" /></clipPath></defs><sodipodi:namedview
     pagecolor="#ffffff"
     bordercolor="#666666"
     borderopacity="1"
     objecttolerance="10"
     gridtolerance="10"
     guidetolerance="10"
     inkscape:pageopacity="0"
     inkscape:pageshadow="2"
     inkscape:window-width="1920"
     inkscape:window-height="1018"
     id="namedview4856"
     showgrid="false"
     inkscape:zoom="0.52323464"
     inkscape:cx="836.15826"
     inkscape:cy="427.11868"
     inkscape:window-x="-8"
     inkscape:window-y="-8"
     inkscape:window-maximized="1"
     inkscape:current-layer="g4862" /><g
     id="g4862"
     inkscape:groupmode="layer"
     inkscape:label="music-theme-publicdomainvectors.org"
     transform="matrix(1.3333333,0,0,-1.3333333,0,1066.6667)"><g
       id="g4864"><g
         id="g4866"
         clip-path="url(#clipPath4870)"><path
           d="m 621.723,412.415 0.466,0.013 -1.786,107.127 -11.17,-0.319 -68.71,-16.908 -0.485,-0.015 5.72,-100.635 c -4.942,2.004 -11.81,2.299 -18.766,0.371 -11.665,-3.23 -19.136,-11.44 -16.678,-18.337 2.454,-6.896 13.907,-9.871 25.572,-6.64 11.67,3.228 19.134,11.438 16.68,18.336 -0.008,0.03 -0.026,0.057 -0.041,0.084 l 0.469,0.015 -1.46,87.538 58.906,14.979 4.511,-79.425 c -4.939,2.005 -11.807,2.299 -18.765,0.372 -11.664,-3.229 -19.134,-11.44 -16.676,-18.336 2.453,-6.899 13.906,-9.872 25.571,-6.641 11.669,3.229 19.134,11.439 16.681,18.336 -0.009,0.029 -0.026,0.056 -0.039,0.085 m -301.23,80.996 62.05,15.102 -0.083,9.263 -61.703,-14.432 z m -11.106,7.296 -0.224,18.574 85.444,19.997 -0.774,-18.779 -3.159,-119.082 -0.489,0.007 c 0.011,-0.036 0.027,-0.069 0.037,-0.104 2.226,-8.273 -5.974,-17.674 -18.311,-20.994 -12.339,-3.325 -24.15,0.69 -26.378,8.965 -2.228,8.274 5.974,17.675 18.309,20.994 7.361,1.985 14.515,1.341 19.579,-1.246 l -0.782,88.405 -62.441,-15.199 -2.598,-97.885 -0.487,0.004 c 0.011,-0.036 0.025,-0.066 0.035,-0.102 2.229,-8.275 -5.971,-17.676 -18.31,-20.998 -12.339,-3.324 -24.151,0.693 -26.377,8.965 -2.23,8.275 5.972,17.675 18.31,20.999 7.359,1.983 14.512,1.338 19.575,-1.249 z m 41.417,-270.932 -0.362,38.809 c -4.392,-1.425 -8.785,-2.701 -13.163,-3.811 -8.21,-2.103 -16.355,-3.62 -24.348,-4.656 3.689,-8.028 2.196,-18.166 -5.486,-26.402 -11.616,-12.451 -23.62,-14.705 -29.365,-9.245 -5.745,5.465 -4.848,17.521 6.882,29.866 1.401,1.475 2.793,2.828 4.216,4.063 -1.141,-0.015 -2.288,-0.038 -3.419,-0.035 -10.921,0.013 -21.259,0.883 -30.83,2.312 -4.472,0.664 -8.776,1.445 -12.896,2.32 -9.362,1.945 -17.762,4.335 -25.129,6.823 l 2.485,-39.444 c 7.486,-2.598 16.356,-5.201 26.51,-7.294 12.07,-2.483 25.947,-4.197 41.131,-4.176 15.169,0.031 31.655,1.801 48.544,6.22 5.051,1.31 10.137,2.879 15.23,4.65 m -137.713,2.9 -13.716,217.708 c -5.654,3.293 -10.662,6.556 -14.99,9.61 -2.504,1.767 -4.77,3.456 -6.841,5.057 l 13.542,-222.148 c 0.232,-0.134 0.518,-0.3 0.901,-0.519 0.995,-0.563 2.534,-1.404 4.603,-2.45 3.764,-1.9 9.306,-4.495 16.501,-7.258 m 0.126,95.676 2.285,-36.287 c 4.192,-1.733 8.896,-3.582 14.183,-5.427 1.4,-0.466 2.839,-0.929 4.313,-1.388 7.68,-2.336 16.307,-4.492 25.759,-6.108 4.325,-0.719 8.82,-1.322 13.472,-1.771 7.195,-0.675 14.78,-0.956 22.63,-0.776 L 269.2,314.577 c -5.256,0.552 -10.348,1.281 -15.239,2.172 -4.369,0.787 -8.584,1.694 -12.629,2.69 -10.604,2.543 -20.007,5.685 -28.115,8.912 m 64.811,-14.494 23.894,-37.037 c 6.085,0.346 12.309,0.981 18.642,1.99 8.652,1.368 17.483,3.391 26.367,6.102 1.114,0.342 2.232,0.722 3.35,1.084 l -0.339,36.169 c -4.925,-1.462 -9.854,-2.759 -14.762,-3.841 -10.215,-2.271 -20.337,-3.703 -30.176,-4.383 -7.087,-0.5 -14.026,-0.612 -20.75,-0.398 -2.102,0.064 -4.166,0.186 -6.226,0.314 m 242.353,57.814 c -6.536,-7.922 -12.818,-16.183 -18.952,-24.557 -1.518,-2.101 -3.037,-4.204 -4.558,-6.31 -1.51,-2.123 -3,-4.303 -4.501,-6.455 -3.03,-4.327 -6.064,-8.658 -9.099,-12.988 -6.271,-8.599 -12.816,-17.017 -19.685,-25.138 -6.912,-8.081 -14.153,-15.85 -21.703,-23.216 -6.725,-6.585 -13.749,-12.787 -20.995,-18.597 -0.57,2.078 -1.4,4.189 -2.493,6.276 -0.109,0.194 -0.234,0.386 -0.348,0.58 -0.475,-0.968 -0.735,-1.496 -0.735,-1.496 0,0 0.188,0.656 0.528,1.843 -0.758,1.277 -1.595,2.539 -2.519,3.772 1.34,1.037 2.669,2.095 3.992,3.161 0.002,0.008 0.004,0.016 0.004,0.024 0.075,0.909 0.157,1.884 0.241,2.906 0.007,1.024 -0.058,2.097 -0.082,3.206 -0.074,1.107 -0.321,2.246 -0.475,3.412 -0.321,1.149 -0.587,2.342 -1.036,3.514 -0.881,2.355 -2.202,4.68 -3.88,6.885 -1.764,2.167 -3.815,4.239 -6.209,6.116 -0.461,0.355 -0.963,0.684 -1.438,1.031 -5.151,-3.352 -10.376,-6.529 -15.679,-9.462 -0.15,-0.084 -0.304,-0.158 -0.454,-0.244 -0.679,0.436 -1.372,0.882 -2.037,1.308 -4.996,3.174 -9.487,6.099 -12.91,8.752 5.346,2.535 10.661,5.308 15.92,8.319 -8.412,3.987 -17.02,7.387 -24.085,11.316 -0.285,0.16 -0.593,0.311 -0.873,0.472 -0.865,0.466 -1.691,0.986 -2.503,1.491 l -0.432,-14.154 0.158,0.064 c 0,0 0.15,-0.362 0.436,-1.041 0.072,-0.169 0.15,-0.358 0.238,-0.565 0.075,-0.164 0.215,-0.545 0.247,-0.55 0.11,-0.164 0.214,-0.359 0.302,-0.611 0.384,-0.654 1.141,-1.702 2.168,-2.821 0.536,-0.571 1.184,-1.176 1.849,-1.82 0.762,-0.632 1.478,-1.322 2.387,-2.005 3.496,-2.786 8.265,-5.894 13.59,-9.276 5.304,-3.392 11.158,-7.115 16.612,-11.451 2.732,-2.16 5.314,-4.541 7.656,-7.038 2.334,-2.521 4.294,-5.277 5.859,-8.068 1.488,-2.844 2.505,-5.738 3.008,-8.525 0.001,-0.012 0.001,-0.025 0.004,-0.034 0.257,-1.375 0.319,-2.733 0.429,-4.019 -0.057,-1.308 -0.026,-2.565 -0.164,-3.75 -0.182,-1.185 -0.327,-2.316 -0.531,-3.376 -0.282,-1.04 -0.548,-2.031 -0.796,-2.959 -0.574,-1.828 -1.233,-3.374 -1.726,-4.641 -1.212,-2.466 -1.901,-3.872 -1.901,-3.872 0,0 0.423,1.481 1.166,4.074 0.255,1.315 0.615,2.902 0.838,4.725 0.076,0.914 0.155,1.887 0.237,2.909 0.01,1.024 -0.055,2.097 -0.079,3.203 -0.074,1.107 -0.321,2.245 -0.475,3.413 -0.322,1.15 -0.586,2.341 -1.037,3.516 -0.004,0.01 -0.009,0.019 -0.012,0.03 -6.805,-5.095 -13.781,-9.841 -20.909,-14.148 -9.356,-5.665 -18.969,-10.553 -28.665,-14.688 l 0.462,15.081 c 7.273,3.136 14.512,6.709 21.643,10.779 6.967,3.968 13.823,8.389 20.545,13.175 -0.982,0.96 -2.025,1.889 -3.153,2.77 -2.415,1.86 -5.017,3.606 -7.808,5.186 -7.134,4.044 -14.932,7.308 -22.161,10.576 -2.616,-1.185 -5.24,-2.316 -7.872,-3.392 l 0.216,7.031 c -1.158,0.59 -2.292,1.183 -3.38,1.795 l -2.698,-88.256 -0.605,0.012 c 0.011,-0.041 0.032,-0.074 0.043,-0.115 1.62,-5.366 -1.237,-11.104 -6.953,-15.648 -4.036,-3.21 -9.485,-5.827 -15.84,-7.276 -15.352,-3.505 -30.044,1.082 -32.807,10.238 -1.927,6.38 2.449,13.287 10.461,18.079 3.494,2.09 7.67,3.785 12.33,4.847 9.158,2.091 18.057,1.284 24.354,-1.634 l -0.035,3.735 -0.074,7.837 c -3.857,-1.354 -7.716,-2.61 -11.565,-3.714 -18.001,-5.208 -35.738,-7.585 -52.112,-8.034 -16.391,-0.45 -31.426,1.021 -44.531,3.367 -13.116,2.355 -24.325,5.539 -33.397,8.637 -9.077,3.107 -16.03,6.132 -20.755,8.366 -2.361,1.12 -4.169,2.046 -5.408,2.703 -0.634,0.345 -1.118,0.607 -1.44,0.783 -0.131,0.074 -0.214,0.12 -0.295,0.168 H 181.2 l -24.574,259.998 0.01,2.995 18.963,0.75 0.109,0.1 c 0,0 0.035,-0.037 0.085,-0.092 l 0.29,0.01 -0.002,-0.325 c 0.167,-0.178 0.371,-0.394 0.64,-0.683 0.736,-0.768 1.884,-1.932 3.453,-3.423 3.143,-2.981 7.977,-7.279 14.597,-12.225 6.618,-4.936 15.03,-10.522 25.267,-15.885 10.223,-5.363 22.296,-10.477 36.016,-14.287 13.702,-3.825 29.055,-6.321 45.44,-6.621 1.271,-0.025 2.561,-0.011 3.844,-0.008 l 0.126,-14.378 c -1.347,-0.037 -2.7,-0.09 -4.039,-0.098 -17.662,-0.154 -34.392,2.1 -49.394,5.857 -15.021,3.742 -28.31,8.954 -39.601,14.493 -2.314,1.133 -4.527,2.284 -6.676,3.435 l 2.267,-35.992 c 0.719,-0.415 1.422,-0.824 2.172,-1.246 6.563,-3.619 14.266,-7.412 23.084,-10.918 3.903,-1.53 8.024,-2.999 12.35,-4.365 7.724,-2.413 16.102,-4.487 25.052,-5.974 0.774,-0.126 1.566,-0.234 2.346,-0.352 -0.11,-0.123 -0.235,-0.239 -0.343,-0.364 -4.434,-5.086 -6.137,-11.13 -4.668,-16.579 0.081,-0.301 0.199,-0.582 0.296,-0.876 -5.275,0.713 -10.395,1.603 -15.312,2.665 -4.271,0.912 -8.396,1.943 -12.37,3.061 -10.884,3.01 -20.586,6.678 -28.973,10.455 -0.734,0.327 -1.441,0.656 -2.153,0.984 l 2.204,-35.001 c 1.986,-1.01 4.089,-2.054 6.341,-3.125 1.309,-0.59 2.658,-1.184 4.048,-1.779 7.123,-2.979 15.286,-5.952 24.422,-8.513 2.213,-0.606 4.494,-1.178 6.818,-1.725 l -6.307,8.985 1.571,1.356 -0.055,0.051 c 0,0 0.203,0.183 0.58,0.529 0.186,0.174 0.418,0.386 0.689,0.636 0.083,0.073 0.169,0.152 0.258,0.231 0.159,0.136 0.319,0.275 0.491,0.421 0.344,0.288 0.713,0.585 1.106,0.89 0.261,0.198 0.546,0.402 0.83,0.606 l 0.312,0.27 0.022,-0.027 c 0.03,0.025 0.056,0.046 0.089,0.068 0.407,0.227 0.827,0.459 1.272,0.705 0.441,0.235 0.908,0.475 1.382,0.699 0.482,0.183 0.981,0.36 1.499,0.533 2.079,0.715 4.207,0.871 6.155,0.743 1.936,-0.156 3.685,-0.625 5.335,-1.223 1.622,-0.615 3.188,-1.344 4.671,-2.151 2.998,-1.598 5.843,-3.42 8.771,-4.968 1.463,-0.742 2.929,-1.488 4.425,-1.992 1.492,-0.514 3.003,-0.939 4.514,-1.001 1.502,-0.08 3.023,0.032 4.448,0.574 0.737,0.173 1.396,0.615 2.091,0.908 0.646,0.417 1.304,0.812 1.896,1.267 0.567,0.494 1.157,0.94 1.666,1.43 0.496,0.52 0.971,1.01 1.415,1.471 0.83,0.979 1.547,1.874 2.109,2.629 1.06,1.558 1.672,2.447 1.672,2.447 0,0 -0.434,-0.965 -1.19,-2.658 -0.42,-0.837 -0.975,-1.851 -1.656,-3.011 -0.382,-0.568 -0.792,-1.173 -1.222,-1.808 -0.458,-0.628 -1.018,-1.243 -1.58,-1.92 -0.593,-0.647 -1.294,-1.268 -2.015,-1.924 -0.786,-0.542 -1.571,-1.248 -2.498,-1.695 -1.801,-1.088 -3.871,-1.72 -5.916,-2.072 -2.077,-0.37 -4.087,-0.317 -6.058,-0.164 -1.981,0.156 -3.837,0.544 -5.687,0.932 -3.644,0.826 -7.081,1.884 -10.195,2.588 -3.1,0.748 -5.959,1.026 -7.741,0.684 -0.241,-0.054 -0.452,-0.112 -0.642,-0.169 l 4.595,-7.121 c 6.624,-1.136 13.586,-1.986 20.864,-2.412 6.535,-0.37 13.307,-0.401 20.255,-0.025 8.527,0.466 17.308,1.539 26.23,3.292 8.171,1.612 16.453,3.798 24.738,6.566 8.35,2.797 16.705,6.172 24.973,10.104 8.684,4.138 17.271,8.88 25.669,14.153 7.897,5.022 15.645,10.492 23.193,16.342 7.72,5.979 15.245,12.337 22.575,18.968 3.661,3.385 7.297,6.822 10.913,10.293 1.817,1.745 3.616,3.499 5.436,5.258 1.769,1.715 3.532,3.438 5.291,5.165 0.797,1.021 4.551,4.216 5.354,5.226 0.402,0.507 2.279,2.103 2.684,2.607 0.406,0.504 2.262,2.13 2.67,2.63 3.642,3.588 7.305,7.144 11.001,10.658 0.421,0.485 2.303,2.104 2.727,2.587 0.428,0.488 2.348,2.095 2.779,2.579 1.856,1.712 3.717,3.414 5.582,5.106 3.758,3.342 7.5,6.675 11.32,9.884 5.566,4.746 11.214,9.312 16.911,13.709 l 0.673,-11.856 c -2.519,-2.173 -5.03,-4.371 -7.518,-6.621 -2.507,-2.264 -5.001,-4.561 -7.482,-6.89 -4.691,-4.381 -9.319,-8.893 -13.879,-13.507 -3.031,-2.873 -6,-5.844 -8.997,-8.783 -1.705,-1.813 -3.413,-3.627 -5.123,-5.443 -0.755,-1.064 -2.924,-3.298 -3.675,-4.374 -0.382,-0.542 -2.183,-2.263 -2.563,-2.805 -2.085,-2.411 -4.17,-4.822 -6.257,-7.235 -0.783,-1.071 -4.455,-4.501 -5.255,-5.562 -0.401,-0.533 -2.256,-2.253 -2.664,-2.786 -0.407,-0.53 -2.295,-2.218 -2.708,-2.744 -1.636,-2.092 -6.271,-6.464 -7.985,-8.491 -7.464,-7.046 -15.175,-13.837 -23.151,-20.243 -8.018,-6.421 -16.31,-12.452 -24.832,-17.996 -8.332,-5.414 -16.893,-10.347 -25.607,-14.729 -4.179,-2.105 -8.397,-4.062 -12.64,-5.902 -0.501,0.482 -0.981,0.945 -1.392,1.38 -1.027,1.121 -1.782,2.168 -2.169,2.823 -0.086,0.251 -0.19,0.448 -0.301,0.609 -0.033,0.005 -0.176,0.39 -0.247,0.551 -0.089,0.207 -0.167,0.397 -0.239,0.568 -0.283,0.677 -0.435,1.037 -0.435,1.037 l -3.301,-1.333 v 0.016 l -14.525,0.267 0.024,-2.495 10.994,-0.202 -0.002,-0.016 3.3,1.333 c 0,0 0.152,-0.36 0.436,-1.037 0.073,-0.171 0.149,-0.361 0.238,-0.568 0.072,-0.161 0.214,-0.545 0.248,-0.55 0.112,-0.162 0.215,-0.357 0.3,-0.609 0.387,-0.655 1.142,-1.702 2.169,-2.823 0.537,-0.569 1.184,-1.172 1.851,-1.823 0.761,-0.625 1.475,-1.314 2.385,-2.001 3.496,-2.787 8.264,-5.893 13.588,-9.276 5.306,-3.392 11.16,-7.113 16.613,-11.45 2.733,-2.159 5.316,-4.541 7.659,-7.039 2.333,-2.518 4.292,-5.277 5.855,-8.068 1.489,-2.844 2.507,-5.737 3.008,-8.524 0.004,-0.011 0.004,-0.021 0.005,-0.031 0.258,-1.376 0.321,-2.737 0.429,-4.023 -0.056,-1.306 -0.026,-2.564 -0.161,-3.75 -0.187,-1.185 -0.33,-2.317 -0.536,-3.376 -0.085,-0.321 -0.169,-0.631 -0.253,-0.94 0.459,0.376 0.924,0.744 1.381,1.126 -0.01,-0.141 -0.023,-0.29 -0.034,-0.428 -0.223,-1.825 -0.587,-3.411 -0.839,-4.726 -0.743,-2.592 -1.167,-4.074 -1.167,-4.074 0,0 0.693,1.407 1.905,3.87 0.49,1.27 1.149,2.816 1.722,4.643 0.228,0.846 0.47,1.751 0.723,2.691 2.994,2.555 5.962,5.165 8.868,7.868 7.458,6.913 14.656,14.25 21.57,21.921 6.871,7.715 13.459,15.75 19.802,23.996 3.117,4.208 6.235,8.414 9.348,12.616 1.569,2.113 3.106,4.228 4.701,6.337 1.614,2.104 3.229,4.209 4.841,6.308 5.834,7.494 11.763,14.837 17.891,21.95 2.354,-1.268 5.121,-2.197 8.189,-2.728 m 38.158,41.121 c 1.021,0.961 2.037,1.929 3.065,2.873 14.432,13.189 29.522,24.703 44.881,33.925 0.279,0.168 0.561,0.322 0.839,0.487 l -0.283,4.996 c -0.947,-0.514 -1.896,-1.01 -2.844,-1.543 -15.603,-8.759 -31,-19.778 -45.797,-32.437 z m 38.565,70.212 c -8.111,-4.323 -16.185,-9.202 -24.169,-14.561 -5.089,-3.41 -10.139,-7.03 -15.144,-10.807 l 0.169,-10.087 c 1.903,1.611 3.81,3.216 5.728,4.776 9.734,7.863 19.679,15.01 29.726,21.28 4.043,2.521 8.102,4.899 12.169,7.124 l -0.362,6.392 c -2.707,-1.317 -5.413,-2.674 -8.117,-4.117 m -81.11,-61.796 c -1.809,-1.793 -3.61,-3.601 -5.401,-5.424 -0.649,-0.724 -2.037,-2.013 -2.68,-2.744 -0.636,-0.724 -2.001,-2.018 -2.632,-2.749 -3.601,-3.757 -7.15,-7.582 -10.664,-11.449 -0.61,-0.752 -1.945,-2.065 -2.553,-2.821 -0.607,-0.753 -1.948,-2.058 -2.552,-2.815 -1.203,-1.517 -3.88,-4.133 -5.074,-5.666 -1.686,-1.913 -3.375,-3.826 -5.068,-5.735 -1.705,-1.935 -3.372,-3.87 -5.066,-5.799 -3.366,-3.837 -6.743,-7.658 -10.131,-11.454 -6.836,-7.438 -13.894,-14.636 -21.189,-21.482 -7.231,-6.76 -14.705,-13.165 -22.381,-19.131 -5.408,-4.173 -10.938,-8.09 -16.549,-11.774 1.662,-1.183 3.313,-2.399 4.928,-3.684 2.485,-1.962 4.821,-4.125 6.99,-6.374 0.046,0.032 0.094,0.065 0.142,0.096 8.391,5.993 16.526,12.504 24.336,19.44 7.763,6.885 15.238,14.166 22.429,21.729 2.57,3.04 6.56,7.287 9.015,10.429 0.619,0.791 1.973,2.162 2.585,2.959 0.611,0.796 1.943,2.187 2.546,2.989 1.2,1.593 3.827,4.375 5,5.985 2.182,2.829 4.36,5.659 6.538,8.483 0.571,0.815 1.852,2.217 2.421,3.029 1.128,1.613 2.955,3.821 4.09,5.415 1.615,1.96 3.229,3.92 4.841,5.876 2.563,2.924 5.12,5.858 7.722,8.728 4.319,5.007 8.714,9.922 13.194,14.7 2.363,2.543 4.747,5.051 7.148,7.526 3.407,3.515 6.857,6.952 10.341,10.311 l -0.653,11.495 c -3.594,-3.12 -7.159,-6.311 -10.685,-9.582 -3.706,-3.417 -7.356,-6.941 -10.988,-10.507 M 322.127,381.357 c 0,-0.221 -0.006,-0.447 -0.017,-0.669 l -0.027,-0.964 h -0.048 c -0.387,-3.558 -1.979,-7.036 -4.509,-10.159 5.143,0.568 10.336,1.33 15.557,2.311 6.434,1.202 12.903,2.728 19.369,4.561 -5.712,2.21 -9.912,6.251 -11.366,11.655 -0.2,0.742 -0.329,1.496 -0.412,2.255 -6.185,-1.341 -12.33,-2.376 -18.39,-3.1 z m 90.133,21.002 c 8.65,5.095 17.101,10.647 25.326,16.557 8.188,5.923 16.135,12.226 23.874,18.756 0.855,1.015 6.138,5.507 6.955,6.552 0.207,0.263 2.627,2.264 2.831,2.532 0.204,0.263 2.58,2.31 2.782,2.578 0.401,0.531 5.118,4.607 5.508,5.145 1.993,1.995 3.985,3.988 5.976,5.98 0.189,0.27 2.513,2.312 2.703,2.582 0.376,0.537 2.885,2.802 3.263,3.333 1.804,1.672 3.608,3.342 5.408,5.01 3.427,2.957 6.81,5.965 10.271,8.84 4.799,4.223 9.659,8.325 14.564,12.311 2.594,2.115 5.202,4.2 7.816,6.256 1.545,1.217 3.1,2.413 4.656,3.604 l -0.246,4.358 5.607,0.162 0.982,0.243 c 3.942,2.896 7.902,5.709 11.872,8.432 5.125,3.516 10.28,6.873 15.449,10.053 10.315,6.328 20.704,11.947 31.049,16.713 5.508,2.539 11.002,4.829 16.463,6.858 9.864,3.662 19.607,6.464 29.04,8.333 5.863,1.148 11.6,1.937 17.158,2.382 8.209,0.647 16.012,0.549 23.22,-0.223 2.997,-0.295 5.879,-0.748 8.664,-1.234 2.757,-0.533 5.421,-1.103 7.947,-1.79 4.667,-1.322 8.883,-2.892 12.633,-4.533 7.665,-3.298 13.416,-6.897 17.459,-9.666 2.325,-1.469 4.168,-2.754 5.568,-3.731 0.747,-0.732 1.173,-1.162 1.317,-1.219 0.157,-0.062 0.043,0.259 -0.384,0.894 -0.073,0.491 -0.517,1.302 -1.381,2.355 -0.639,1.21 -2.559,3.063 -5.862,5.395 -1.346,0.951 -3.365,2.306 -6.091,3.842 -3.621,2.085 -7.981,4.252 -13.079,6.214 -1.975,0.785 -4.068,1.507 -6.259,2.208 -0.503,0.162 -1.015,0.323 -1.531,0.483 -2.724,0.792 -5.579,1.571 -8.589,2.201 -6.759,1.487 -14.225,2.433 -22.235,2.688 -5.95,0.199 -12.2,0.007 -18.661,-0.606 -7.67,-0.741 -15.634,-2.082 -23.777,-4.02 -7.69,-1.83 -15.537,-4.196 -23.447,-7.067 -8.007,-2.901 -16.083,-6.307 -24.162,-10.17 -8.239,-3.936 -16.483,-8.345 -24.672,-13.161 -8.087,-4.748 -16.152,-9.851 -24.11,-15.327 -7.986,-5.494 -15.931,-11.267 -23.737,-17.357 -3.927,-3 -7.767,-6.145 -11.651,-9.261 -1.92,-1.59 -3.842,-3.188 -5.762,-4.791 -0.214,-0.241 -2.664,-2.168 -2.879,-2.412 -0.21,-0.242 -2.611,-2.187 -2.823,-2.43 -3.79,-3.266 -7.568,-6.555 -11.338,-9.863 -0.204,-0.249 -2.583,-2.189 -2.785,-2.44 -0.202,-0.251 -2.616,-2.142 -2.817,-2.394 -0.402,-0.506 -5.233,-4.282 -5.631,-4.791 -1.833,-1.541 -3.673,-3.072 -5.519,-4.592 -1.934,-1.584 -3.859,-3.159 -5.801,-4.719 -3.868,-3.106 -7.766,-6.156 -11.697,-9.134 -7.825,-5.823 -15.817,-11.341 -23.962,-16.453 -7.287,-4.574 -14.711,-8.789 -22.22,-12.628 l -0.356,-13.436 h -0.078 c -0.164,-1.407 -0.512,-2.815 -1.038,-4.205 6.154,3.027 12.236,6.294 18.219,9.803 m 30.59,82.2 c 4.037,2.683 8.035,5.441 11.999,8.254 l 5.909,4.355 2.95,2.184 2.9,2.25 c 1.131,0.877 2.256,1.751 3.384,2.629 -0.084,0.136 -0.152,0.267 -0.245,0.406 -0.267,0.35 -0.546,0.722 -0.842,1.114 -0.331,0.365 -0.714,0.716 -1.09,1.096 -0.4,0.361 -0.893,0.667 -1.352,1.019 -0.534,0.278 -1.057,0.595 -1.66,0.835 -1.204,0.488 -2.613,0.794 -4.155,0.924 -1.573,0.08 -3.252,0.02 -5.039,-0.243 -1.787,-0.278 -3.631,-0.666 -5.513,-1.19 -7.409,-2.045 -14.991,-5.364 -21.454,-7.168 z M 410.331,452.44 c -4.579,-2.41 -9.211,-4.687 -13.879,-6.836 l 0.35,13.195 c 2.778,1.259 5.552,2.548 8.304,3.903 8.574,4.242 17.03,8.925 25.349,13.941 2.272,1.388 4.528,2.809 6.776,4.25 l -31.99,33.427 7.175,5.505 0.005,-0.005 1.172,1.742 c 0,0 0.193,-0.07 0.554,-0.196 0.089,-0.033 0.191,-0.07 0.301,-0.11 0.089,-0.028 0.283,-0.108 0.303,-0.096 0.105,-0.016 0.223,-0.044 0.346,-0.099 0.405,-0.082 1.117,-0.159 1.985,-0.157 0.451,0.006 0.962,0.043 1.501,0.073 0.579,0.074 1.154,0.106 1.822,0.217 2.619,0.368 5.968,1.114 9.677,1.975 3.703,0.854 7.78,1.804 11.866,2.382 2.042,0.294 4.082,0.451 6.047,0.477 1.966,0.014 3.829,-0.2 5.508,-0.579 1.66,-0.425 3.107,-1.05 4.266,-1.836 0.585,-0.385 1.065,-0.843 1.544,-1.258 0.401,-0.481 0.83,-0.912 1.152,-1.38 0.299,-0.487 0.601,-0.941 0.848,-1.393 0.206,-0.475 0.4,-0.924 0.583,-1.348 0.322,-0.863 0.508,-1.659 0.684,-2.295 0.218,-1.333 0.343,-2.094 0.343,-2.094 0,0 -0.279,0.684 -0.769,1.881 -0.309,0.56 -0.653,1.258 -1.143,1.983 -0.263,0.353 -0.542,0.725 -0.837,1.115 -0.332,0.364 -0.718,0.716 -1.093,1.097 -0.398,0.361 -0.895,0.665 -1.353,1.015 -0.534,0.28 -1.054,0.598 -1.66,0.837 -1.204,0.488 -2.611,0.795 -4.154,0.924 -1.572,0.083 -3.253,0.021 -5.037,-0.243 -1.789,-0.277 -3.632,-0.668 -5.514,-1.189 -7.549,-2.083 -15.276,-5.495 -21.818,-7.277 -0.576,-0.169 -1.15,-0.305 -1.712,-0.439 l 4.437,-5.142 0.057,0.082 c 0,0 0.192,-0.07 0.554,-0.198 0.09,-0.032 0.191,-0.068 0.302,-0.106 0.088,-0.03 0.285,-0.109 0.3,-0.1 0.108,-0.014 0.223,-0.042 0.346,-0.097 0.405,-0.082 1.117,-0.158 1.987,-0.155 0.448,0.006 0.963,0.042 1.501,0.073 0.578,0.071 1.154,0.104 1.823,0.215 2.621,0.368 5.965,1.113 9.674,1.978 3.702,0.852 7.781,1.799 11.867,2.378 2.044,0.294 4.084,0.453 6.048,0.48 1.966,0.012 3.828,-0.2 5.507,-0.58 1.66,-0.425 3.107,-1.052 4.267,-1.837 0.583,-0.386 1.062,-0.844 1.543,-1.257 0.402,-0.482 0.829,-0.912 1.152,-1.382 0.3,-0.488 0.599,-0.939 0.849,-1.391 0.204,-0.475 0.4,-0.925 0.584,-1.347 0.044,-0.122 0.071,-0.231 0.11,-0.351 2.517,1.955 5.033,3.91 7.544,5.86 l 2.918,2.269 2.979,2.246 c 1.984,1.493 3.964,2.984 5.942,4.474 4.008,2.892 7.943,5.849 11.981,8.64 7.996,5.687 16.12,11.067 24.249,16.211 8.123,5.157 16.338,9.958 24.544,14.447 16.403,8.993 32.933,16.523 49.162,22.149 16.216,5.637 32.159,9.307 47.094,10.736 6.019,0.563 11.853,0.75 17.464,0.615 l -1.863,69.007 1.506,0.173 -0.014,0.054 c 0,0 0.197,0.028 0.567,0.085 0.186,0.028 0.412,0.06 0.679,0.1 0.079,0.009 0.163,0.022 0.25,0.035 0.152,0.015 0.307,0.034 0.47,0.051 0.326,0.033 0.672,0.06 1.034,0.081 0.239,0.013 0.495,0.016 0.75,0.023 l 0.302,0.036 0.002,-0.026 c 0.028,0.002 0.053,0.003 0.084,0.003 0.338,-0.034 0.687,-0.07 1.059,-0.107 0.364,-0.043 0.745,-0.094 1.124,-0.157 0.371,-0.096 0.747,-0.198 1.133,-0.313 1.557,-0.448 2.92,-1.268 4.059,-2.19 1.118,-0.934 1.998,-1.982 2.763,-3.069 0.742,-1.083 1.407,-2.219 1.985,-3.366 1.186,-2.295 2.189,-4.666 3.352,-6.899 0.593,-1.099 1.19,-2.198 1.898,-3.16 0.706,-0.966 1.457,-1.885 2.353,-2.575 0.886,-0.7 1.859,-1.285 2.949,-1.56 0.52,-0.209 1.101,-0.217 1.643,-0.331 0.565,-0.018 1.125,-0.053 1.671,-0.024 0.544,0.065 1.085,0.091 1.594,0.18 0.512,0.112 1,0.214 1.455,0.311 0.905,0.257 1.702,0.51 2.35,0.741 1.277,0.518 2.009,0.814 2.009,0.814 0,0 -0.656,-0.42 -1.8,-1.155 -0.594,-0.344 -1.341,-0.742 -2.227,-1.176 -0.463,-0.191 -0.955,-0.394 -1.474,-0.606 -0.535,-0.197 -1.125,-0.341 -1.74,-0.524 -0.625,-0.149 -1.303,-0.237 -2.007,-0.337 -0.699,-0.002 -1.465,-0.106 -2.21,0.014 -1.539,0.092 -3.057,0.59 -4.447,1.252 -1.421,0.662 -2.626,1.563 -3.768,2.51 -1.147,0.953 -2.123,1.996 -3.095,3.038 -1.894,2.09 -3.566,4.238 -5.182,6.025 -1.593,1.806 -3.227,3.213 -4.453,3.767 -0.169,0.069 -0.32,0.125 -0.46,0.169 l -0.641,-61.02 c 6.96,-0.354 13.531,-1.228 19.576,-2.587 2.978,-0.624 5.814,-1.427 8.538,-2.23 2.703,-0.867 5.297,-1.745 7.73,-2.741 4.889,-1.94 9.202,-4.131 12.946,-6.35 7.502,-4.437 12.69,-8.968 15.971,-12.248 1.643,-1.644 2.816,-2.989 3.576,-3.915 0.762,-0.928 1.115,-1.437 1.115,-1.437 0,0 -0.369,0.498 -1.16,1.399 -0.787,0.901 -1.999,2.207 -3.688,3.791 -3.37,3.165 -8.677,7.505 -16.242,11.662 -3.776,2.077 -8.107,4.107 -12.988,5.865 -2.429,0.909 -5.014,1.691 -7.702,2.461 -2.707,0.706 -5.519,1.405 -8.465,1.927 -5.964,1.144 -12.42,1.799 -19.232,1.932 l -0.057,-5.321 c 1.611,-8.775 -3.739,-17.353 -13.917,-19.707 -12.119,-2.802 -20.358,0.962 -21.664,6.868 -1.304,5.907 4.11,13.086 16.254,15.772 5.623,1.244 10.45,1.474 15.904,-0.742 l -0.084,3.139 c -5.536,-0.038 -11.279,-0.403 -17.188,-1.145 -14.595,-1.866 -30.106,-5.957 -45.848,-11.994 -15.752,-6.026 -31.76,-13.938 -47.623,-23.3 -7.935,-4.674 -15.873,-9.655 -23.717,-14.992 -7.848,-5.324 -15.685,-10.878 -23.394,-16.737 -3.893,-2.876 -7.69,-5.923 -11.549,-8.898 -1.892,-1.522 -3.791,-3.048 -5.689,-4.576 l -2.85,-2.291 -2.844,-2.358 c -1.898,-1.576 -3.798,-3.152 -5.698,-4.73 l -5.759,-4.723 -2.9,-2.377 -2.955,-2.313 -5.925,-4.615 c -3.67,-2.755 -7.381,-5.462 -11.127,-8.115 l 6.686,-7.746 -0.299,-0.231 c 0.017,-0.008 0.039,-0.014 0.059,-0.024 4.355,-2.152 2.746,-9.694 -3.593,-16.846 -6.338,-7.149 -15.015,-11.2 -19.37,-9.046 -4.359,2.153 -2.747,9.696 3.592,16.845 3.782,4.264 8.388,7.413 12.42,8.813 l -4.528,4.732 c -2.792,-1.917 -5.597,-3.81 -8.436,-5.65 -8.43,-5.399 -17.043,-10.473 -25.823,-15.114 m -31.774,-14.324 -0.117,13.147 c -8.541,-3.135 -17.122,-5.778 -25.672,-7.867 -9.805,-2.402 -19.559,-4.03 -29.125,-4.964 l -0.372,-14.018 c 10.824,1.252 21.811,3.349 32.759,6.346 7.545,2.058 15.066,4.536 22.527,7.356 m 291.541,-65.39 -19.177,-2.328 -0.475,-17.531 19.652,2.749 z m 6.859,0.83 -0.419,-17.038 12.236,1.712 1.172,-8.376 -13.607,-1.457 -0.605,-24.516 h -5.636 v 23.848 L 650.249,345.6 649.66,323.881 h -5.636 v 21.051 l -12.332,-1.321 v 6.63 l 12.332,1.728 v 17.592 l -12.04,-1.458 -0.292,7.416 12.332,1.725 v 21.572 l 7.691,0.881 -0.579,-21.459 18.962,2.655 v 17.923 l 7.517,1.497 -0.454,-18.434 11.613,1.626 1.172,-8.373 z M 496.7,616.013 c 0.262,0 0.525,-0.006 0.788,-0.015 1.862,-0.087 3.283,-0.256 4.625,-0.549 1.762,-0.413 3.265,-0.89 4.617,-1.464 1.74,-0.761 3.13,-1.513 4.393,-2.377 7.258,-4.959 9.81,-12.195 7.586,-21.508 -0.532,-2.213 -1.054,-3.995 -1.644,-5.61 -0.675,-1.827 -1.444,-3.681 -2.282,-5.521 -1.747,-3.677 -3.723,-7.204 -5.888,-10.503 -2.106,-3.229 -4.4,-6.387 -6.813,-9.38 -2.171,-2.723 -4.51,-5.445 -6.952,-8.082 -1.92,-2.106 -3.954,-4.224 -6.392,-6.654 -1.521,-1.525 -2.929,-2.882 -4.173,-4.08 l -1.738,-1.672 c 0.296,0.083 0.6,0.171 0.915,0.266 2.26,0.664 4.601,1.494 6.972,2.467 2.838,1.172 5.753,2.608 8.666,4.265 1.338,0.769 2.803,1.681 4.739,2.952 1.39,0.943 2.934,2.075 4.838,3.553 3.471,2.785 6.664,5.83 9.475,9.032 3.308,3.802 6.08,7.742 8.234,11.704 2.52,4.508 4.365,9.311 5.49,14.3 0.58,2.703 0.913,5.409 0.985,8.029 0.023,3.039 -0.288,5.805 -0.954,8.426 -0.728,2.923 -2.042,5.748 -3.804,8.177 l -0.737,0.951 c -0.25,0.304 -0.577,0.674 -0.883,1.01 -0.185,0.203 -0.288,0.299 -0.409,0.41 l -0.99,0.904 c -0.837,0.745 -1.763,1.48 -3.022,2.402 -2.028,1.453 -4.219,2.672 -6.499,3.617 -0.424,0.18 -0.834,0.364 -1.245,0.551 -1.838,0.83 -3.535,1.624 -5.131,1.41 -9.403,-1.224 -17.224,-5.319 -22.033,-8.455 l 4.171,0.892 c 1.715,0.365 3.427,0.552 5.095,0.552 m -8.097,-23.559 c 5.639,0 10.225,4.587 10.225,10.228 0,4.5 -3.016,8.531 -7.334,9.804 l -4.984,1.472 c -2.198,-1.494 -3.622,-2.683 -4.095,-3.093 l -0.018,-0.043 -0.295,-0.245 c -2.37,-1.953 -3.727,-4.83 -3.727,-7.895 0,-5.641 4.587,-10.228 10.228,-10.228 m 56.249,-16.877 c 4.237,0 7.67,3.434 7.67,7.672 0,4.234 -3.433,7.67 -7.67,7.67 -4.237,0 -7.67,-3.436 -7.67,-7.67 0,-4.238 3.433,-7.672 7.67,-7.672 m 0,27.105 c 4.237,0 7.67,3.432 7.67,7.67 0,4.236 -3.433,7.67 -7.67,7.67 -4.237,0 -7.67,-3.434 -7.67,-7.67 0,-4.238 3.433,-7.67 7.67,-7.67 m 230.819,-100.85 c -0.768,-0.298 -1.714,-0.627 -2.784,-0.964 -0.543,-0.133 -1.12,-0.272 -1.729,-0.421 -0.604,-0.125 -1.252,-0.173 -1.898,-0.268 -0.654,-0.054 -1.324,-0.03 -1.998,-0.03 -0.655,0.121 -1.346,0.11 -1.976,0.34 -1.309,0.295 -2.492,0.963 -3.571,1.765 -1.096,0.794 -2.025,1.869 -2.901,2.998 -0.88,1.125 -1.628,2.421 -2.374,3.711 -1.464,2.632 -2.743,5.43 -4.237,8.134 -0.732,1.349 -1.561,2.683 -2.488,3.954 -0.949,1.271 -2.036,2.496 -3.404,3.574 -1.392,1.063 -3.049,1.997 -4.924,2.479 -0.463,0.125 -0.919,0.236 -1.362,0.337 -0.459,0.065 -0.913,0.108 -1.351,0.148 -0.443,0.033 -0.863,0.062 -1.269,0.093 -0.036,-10e-4 -0.064,-0.005 -0.1,-0.006 l -0.003,0.029 -0.359,-0.052 c -0.304,-0.014 -0.61,-0.029 -0.897,-0.051 -0.434,-0.039 -0.845,-0.083 -1.232,-0.133 -0.194,-0.027 -0.378,-0.054 -0.559,-0.079 -0.103,-0.015 -0.202,-0.034 -0.299,-0.048 -0.318,-0.057 -0.587,-0.104 -0.807,-0.142 -0.441,-0.078 -0.675,-0.119 -0.675,-0.119 l 0.017,-0.068 -1.795,-0.255 0.247,-4.45 c -3.277,1.761 -7.219,3.628 -11.909,5.385 -1.978,0.759 -4.086,1.473 -6.305,2.168 -0.509,0.157 -1.023,0.314 -1.545,0.469 -2.72,0.781 -5.598,1.541 -8.639,2.174 -6.738,1.451 -14.237,2.418 -22.347,2.675 -5.955,0.206 -12.232,0.019 -18.748,-0.61 -7.68,-0.747 -15.68,-2.107 -23.876,-4.11 -6.861,-1.67 -13.854,-3.828 -20.9,-6.395 l 9.482,0.272 0.046,-2.762 c 5.085,1.847 10.132,3.46 15.113,4.795 5.854,1.557 11.612,2.756 17.222,3.599 8.248,1.23 16.16,1.708 23.552,1.516 3.049,-0.067 6.002,-0.278 8.863,-0.543 2.827,-0.298 5.568,-0.653 8.191,-1.118 4.457,-0.886 8.553,-1.997 12.282,-3.201 7.76,-2.442 13.96,-5.297 18.675,-7.673 0.369,-0.167 0.704,-0.329 1.054,-0.494 l 1.199,-21.636 c -1.799,0.777 -3.751,1.563 -5.863,2.334 -1.981,0.732 -4.102,1.44 -6.351,2.126 -0.513,0.153 -1.034,0.307 -1.557,0.459 -2.721,0.77 -5.617,1.508 -8.69,2.143 -6.719,1.416 -14.248,2.405 -22.46,2.666 -5.957,0.214 -12.267,0.026 -18.834,-0.616 -7.69,-0.754 -15.729,-2.131 -23.976,-4.198 -5.917,-1.477 -11.932,-3.325 -17.998,-5.517 l 0.09,-5.383 c 3.853,1.589 7.697,3.072 11.508,4.358 5.845,1.968 11.622,3.575 17.286,4.816 8.288,1.814 16.308,2.868 23.884,3.252 3.1,0.162 6.121,0.196 9.061,0.153 2.897,-0.064 5.715,-0.204 8.434,-0.45 4.244,-0.448 8.225,-1.099 11.929,-1.87 7.858,-1.581 14.503,-3.696 19.893,-5.674 1.342,-0.463 2.592,-0.923 3.797,-1.38 l 1.292,-23.374 c -1.944,0.69 -4.028,1.374 -6.253,2.033 -8.856,2.59 -19.964,4.808 -32.879,5.217 -12.897,0.48 -27.562,-0.947 -42.995,-4.905 -8.03,-2.053 -16.248,-4.836 -24.521,-8.278 l 0.071,-4.172 c 8.5,3.911 16.965,7.109 25.257,9.489 15.034,4.324 29.416,6.154 42.154,6.054 12.753,-0.033 23.818,-1.903 32.685,-4.218 2.328,-0.616 4.496,-1.263 6.521,-1.921 l 1.793,-32.437 c -6.594,2.465 -12.352,2.028 -19.029,0.352 -14.421,-3.619 -20.652,-12.379 -18.893,-19.393 1.761,-7.014 11.732,-11.234 26.118,-7.476 12.082,3.155 18.187,13.584 15.966,24.016 l -0.586,33.051 c 3.238,-1.229 5.955,-2.431 8.119,-3.477 4.436,-2.151 6.626,-3.628 6.626,-3.628 0,0 -2.146,1.541 -6.528,3.824 -2.179,1.136 -4.925,2.449 -8.226,3.807 l -0.403,22.77 c 0.324,-0.178 0.621,-0.329 0.873,-0.426 0.466,-0.183 0.832,-0.238 1.077,-0.186 1.3,-0.386 2.309,-0.64 3.008,-0.768 2.744,-1.028 3.565,-1.396 2.465,-0.618 -0.449,0.315 -2.554,1.796 -6.383,3.828 -0.348,0.189 -0.713,0.381 -1.082,0.574 l -0.37,20.854 c 0.269,-0.194 0.482,-0.33 0.639,-0.391 0.31,-0.122 0.437,0.011 0.347,0.354 0.613,0.054 0.895,0.333 0.813,0.796 0.621,0.051 0.669,0.339 0.166,0.878 1.222,-0.825 2.614,-2.056 3.99,-3.533 1.993,-2.082 4.065,-4.59 6.396,-7.024 1.195,-1.21 2.401,-2.427 3.802,-3.527 1.397,-1.093 2.867,-2.128 4.585,-2.873 1.687,-0.743 3.518,-1.284 5.36,-1.346 0.894,-0.114 1.804,0.033 2.64,0.057 0.837,0.146 1.644,0.272 2.384,0.473 0.729,0.238 1.433,0.429 2.064,0.683 0.613,0.272 1.195,0.531 1.742,0.775 1.042,0.548 1.919,1.049 2.619,1.48 1.344,0.918 2.111,1.442 2.111,1.442 0,0 -0.863,-0.38 -2.37,-1.042 M 534.16,330.456 c -9.803,15.644 -28.749,9.255 -28.172,-6.292 0.559,-14.995 16.468,-19.762 28.172,-28.171 10.9,8.019 28.674,14.161 28.169,28.171 -0.559,15.547 -19.1,22.082 -28.169,6.292 M 247.03,472.599 c 10.733,7.896 28.239,13.948 27.743,27.743 -0.55,15.312 -18.812,21.747 -27.743,6.197 -9.655,15.406 -28.312,9.115 -27.743,-6.197 0.546,-14.768 16.215,-19.462 27.743,-27.743 M 93.215,303.317 c 6.27,0.67 9.774,4.22 11.326,9.989 1.391,5.173 1.211,12.895 -5.17,15.368 -8.204,2.9 -10.151,-3.959 -10.151,-3.959 11.417,-3.025 10.65,-12.091 10.65,-12.091 0,0 0.297,-5.734 -6.655,-9.307 m -11.707,77.592 c -4.279,-4.01 -17.293,-17.765 -17.909,-36.08 -0.37,-10.947 0,-29.808 19.445,-41.322 2.175,-0.48 3.515,-1.106 7.226,-0.19 -22.457,21.589 -1.112,54.68 16.955,58.336 15.48,3.136 37.608,-2.234 42.791,-30.059 5.179,-27.827 -7.102,-49.847 -23.055,-56.946 l 0.505,-0.301 c 40.302,11.704 40.619,68.363 33.685,85.004 -18.683,44.828 -61.474,38.572 -79.643,21.558 M 74.076,218.382 c 1.24,4.408 6.535,13.556 13.45,7.044 7.707,-7.262 -3.303,-15.152 -3.303,-15.152 0,0 -1.408,-11.2 14.457,-11.146 7.072,1.296 10.747,12.426 2.377,24.629 -9.584,13.972 -23.512,11.139 -28.756,2.303 -5.245,-8.832 -1.761,-21.931 1.342,-26.547 0.182,-0.271 0.901,-0.173 1.072,-0.385 -2.212,5.334 -2.223,13.625 -0.639,19.254 m 45.925,73.462 c -3.443,22.692 -7.228,45.956 -10.803,67.439 l -6.615,-1.977 c 3.561,-21.499 7.326,-46.408 10.381,-69.51 z m -4.907,-19.281 c 3.215,-26.012 4.756,-51.008 4.057,-60.96 -1.166,-16.64 -6.02,-28.082 -15.613,-28.788 -8.122,-0.597 -19.051,2.304 -27.719,12.602 H 75.1 c 0,0 5.325,-23.54 25.864,-28.146 20.539,-4.605 27.055,18.936 28.333,39.917 0.535,8.774 -2.188,37.427 -6.691,68.129 z M 92.595,409.784 c 0.933,-3.373 2.199,-9.216 3.674,-16.808 l 6.848,2.373 c -1.547,9.051 -2.805,16.331 -3.618,21.051 -0.023,0.132 -0.046,0.263 -0.068,0.39 z m 14.403,151.457 c 5.427,3.289 26.143,-10.469 23.732,-28.891 4.224,14.707 0.083,29.956 -9.332,35.025 -4.279,2.306 -12.552,0.864 -14.4,-6.134 M 88.445,460.139 c 0.796,31.113 -6.172,106.569 22.762,112.262 0,0 3.835,1.536 -0.321,3.518 C 88.05,585.963 76.993,564.674 76.104,563.063 61.23,536.098 76.439,516.4 82.688,452.205 Z m 39.086,-178.365 c 24.62,15.554 15.828,47.459 11.996,54.022 1.661,-4.564 2.957,-35.972 -20.599,-47.912 -21.103,-10.696 -40.272,-6.173 -55.402,3.678 l -0.436,-1.578 c 5.579,-7.581 32.202,-26.25 64.441,-8.21 m -67.315,8.21 c -61.987,43.852 -23.935,100.889 -9.863,117.521 13.707,16.199 82.697,80.589 82.697,123.832 3.071,-3.326 9.418,-32.996 1.998,-59.096 C 128.013,452.284 80.647,403.304 66.729,383.907 49.881,360.423 27.463,322.992 60.216,289.984"
           style="fill:#000000;fill-opacity:1;fill-rule:nonzero;stroke:none"
           id="path4872"
           inkscape:connector-curvature="0" /></g></g></g></svg>